<?xml version="1.0" encoding="UTF-8" standalone="no"?>
<!DOCTYPE svg PUBLIC "-//W3C//DTD SVG 1.0//EN" "http://www.w3.org/TR/2001/REC-SVG-20010904/DTD/ svg10.dtd">
<!-- Created with Inkscape (http://www.inkscape.org/) -->
<svg
   xmlns:svg="http://www.w3.org/2000/svg"
   xmlns="http://www.w3.org/2000/svg"
   xmlns:xlink="http://www.w3.org/1999/xlink"
   version="1.0"
   width="884.53156"
   height="490.93185"
   id="svg2"
   xml:space="preserve"><defs
     id="defs5"><linearGradient
       x1="4.6857638"
       y1="-2.2775285"
       x2="-0.42540562"
       y2="-5.3245125"
       id="linearGradient3453"
       xlink:href="#linearGradient3457"
       gradientUnits="userSpaceOnUse"
       gradientTransform="matrix(97.112375,-26.021159,-26.021159,-97.112375,-72.037087,-50.235)"
       spreadMethod="pad" /><linearGradient
       x1="-2.944994"
       y1="3.5638855"
       x2="-6.8708091"
       y2="3.7502308"
       id="linearGradient3436"
       xlink:href="#linearGradient39"
       gradientUnits="userSpaceOnUse"
       gradientTransform="matrix(-92.836395,0,0,92.836395,26.837985,-68.053625)"
       spreadMethod="pad" /><linearGradient
       x1="-35.283161"
       y1="-17.997284"
       x2="-28.978157"
       y2="-19.686687"
       id="linearGradient3415"
       xlink:href="#linearGradient139"
       gradientUnits="userSpaceOnUse"
       gradientTransform="matrix(-4.501314,-16.799307,-16.799307,4.501314,-18.752826,-39.806363)"
       spreadMethod="pad" /><linearGradient
       x1="-17.509537"
       y1="10.173277"
       x2="-19.063168"
       y2="1.4373279"
       id="linearGradient3424"
       xlink:href="#linearGradient91"
       gradientUnits="userSpaceOnUse"
       gradientTransform="matrix(-16.490082,-19.652219,-19.652219,16.490082,17.180683,-39.94455)"
       spreadMethod="pad" /><linearGradient
       x1="4053.8562"
       y1="3613.5959"
       x2="924.03619"
       y2="3613.5959"
       id="linearGradient3421"
       xlink:href="#linearGradient123"
       gradientUnits="userSpaceOnUse"
       gradientTransform="matrix(0,0.1440938,0.1440938,0,-78.424188,-113.16892)" /><linearGradient
       x1="16.074196"
       y1="-32.354073"
       x2="12.165196"
       y2="-24.98863"
       id="linearGradient3418"
       xlink:href="#linearGradient123"
       gradientUnits="userSpaceOnUse"
       gradientTransform="matrix(23.060754,-14.409945,-14.409945,-23.060754,-59.545175,-42.566188)"
       spreadMethod="pad" /><linearGradient
       x1="4.2934723"
       y1="-1.6094037"
       x2="1.6271075"
       y2="-1.8431326"
       id="linearGradient3457"
       gradientUnits="userSpaceOnUse"
       gradientTransform="matrix(-180.585,673.953,-673.953,-180.585,436.757,44.326)"
       spreadMethod="pad"><stop
         id="stop3459"
         style="stop-color:#ffffff;stop-opacity:1"
         offset="0" /><stop
         id="stop3461"
         style="stop-color:#231f20;stop-opacity:1"
         offset="0.67251265" /><stop
         id="stop3465"
         style="stop-color:#2d2b2c;stop-opacity:1"
         offset="0.9526276" /><stop
         id="stop3463"
         style="stop-color:#383738;stop-opacity:1"
         offset="1" /></linearGradient><linearGradient
       x1="-3.0491054"
       y1="3.3945169"
       x2="-6.5237713"
       y2="3.3945169"
       id="linearGradient39"
       gradientUnits="userSpaceOnUse"
       gradientTransform="matrix(0,-644.278,644.278,0,313.097,730.512)"
       spreadMethod="pad"><stop
         id="stop41"
         style="stop-color:#ffffff;stop-opacity:1"
         offset="0" /><stop
         id="stop43"
         style="stop-color:#242322;stop-opacity:1"
         offset="1" /></linearGradient><linearGradient
       x1="-17.509537"
       y1="10.173277"
       x2="-19.063168"
       y2="1.4373279"
       id="linearGradient91"
       gradientUnits="userSpaceOnUse"
       gradientTransform="matrix(-136.385,-114.44,114.44,-136.385,508.172,663.491)"
       spreadMethod="pad"><stop
         id="stop93"
         style="stop-color:#7b7979;stop-opacity:1"
         offset="0" /><stop
         id="stop95"
         style="stop-color:#eae9ea;stop-opacity:1"
         offset="1" /></linearGradient><linearGradient
       x1="16.074196"
       y1="-32.354073"
       x2="12.165196"
       y2="-24.98863"
       id="linearGradient123"
       gradientUnits="userSpaceOnUse"
       gradientTransform="matrix(-100.004,160.04,-160.04,-100.004,489.978,131.019)"
       spreadMethod="pad"><stop
         id="stop125"
         style="stop-color:#7b7979;stop-opacity:1"
         offset="0" /><stop
         id="stop127"
         style="stop-color:#eae9ea;stop-opacity:1"
         offset="1" /></linearGradient><linearGradient
       x1="-35.283161"
       y1="-17.997284"
       x2="-28.978157"
       y2="-19.686687"
       id="linearGradient139"
       gradientUnits="userSpaceOnUse"
       gradientTransform="matrix(-116.586,-31.2388,31.2388,-116.586,509.131,414.115)"
       spreadMethod="pad"><stop
         id="stop141"
         style="stop-color:#acabab;stop-opacity:1"
         offset="0" /><stop
         id="stop143"
         style="stop-color:#eae9ea;stop-opacity:1"
         offset="1" /></linearGradient></defs><path
     d="M 442.25,9.65625 C 207.61216,9.65625 17.406251,199.88188 17.40625,434.53125 C 17.40625,450.33399 18.2902,465.93527 19.96875,481.28125 L 67.6875,481.28125 C 65.79267,465.96985 64.812499,450.35849 64.8125,434.53125 C 64.8125,226.05651 233.78823,57.062501 442.25,57.0625 C 650.71323,57.0625 819.71873,226.05651 819.71875,434.53125 C 819.71875,450.35849 818.73863,465.96985 816.84375,481.28125 L 864.5625,481.28125 C 866.23975,465.93527 867.12497,450.33399 867.125,434.53125 C 867.125,199.88188 676.90083,9.6562498 442.25,9.65625 z M 96.625,349.03125 L 96.625,481.28125 L 166.5625,481.28125 L 166.5625,432.6875 L 204.625,470.75 L 242.71875,432.6875 L 242.71875,481.28125 L 312.625,481.28125 L 312.625,349.03125 L 247.84375,349.03125 L 204.625,392.21875 L 161.4375,349.03125 L 96.625,349.03125 z M 406.125,349.03125 L 320.0625,481.28125 L 392.75,481.28125 L 402.0625,466.84375 L 482.71875,466.84375 L 492.0625,481.28125 L 564.78125,481.28125 L 478.6875,349.03125 L 406.125,349.03125 z M 571.71875,349.03125 L 571.71875,481.28125 L 641.65625,481.28125 L 641.65625,424.78125 L 717.96875,481.28125 L 786.71875,481.28125 L 786.71875,349.03125 L 716.78125,349.03125 L 716.78125,406.03125 L 639.96875,349.03125 L 571.71875,349.03125 z M 442.40625,404.1875 L 458.59375,429.21875 L 426.1875,429.21875 L 442.40625,404.1875 z"
     id="dunkelgrau"
     style="fill:#231f20;fill-opacity:1;fill-rule:evenodd;stroke:none" /><path
     d="M 100,352.375 L 106,358.40625 L 106,471.90625 L 157.1875,471.90625 L 163.1875,477.90625 L 163.1875,424.5625 L 157.1875,410.09375 L 204.625,457.53125 L 252.0625,410.09375 L 252.0625,471.90625 L 303.28125,471.90625 L 309.28125,477.90625 L 309.28125,352.375 L 249.21875,352.375 L 251.71875,358.40625 L 204.625,405.46875 L 204.625,396.96875 L 160.03125,352.375 L 100,352.375 z M 407.9375,352.375 L 411.1875,358.40625 L 337.3125,471.90625 L 387.65625,471.90625 L 396.96875,457.5 L 487.84375,457.5 L 497.15625,471.90625 L 547.5,471.90625 L 558.5625,477.90625 L 476.875,352.375 L 407.9375,352.375 z M 575.09375,352.375 L 581.09375,358.40625 L 581.09375,471.90625 L 632.28125,471.90625 L 638.28125,477.90625 L 638.28125,418.09375 L 632.28125,406.1875 L 721.0625,471.90625 L 777.34375,471.90625 L 783.34375,477.90625 L 783.34375,352.375 L 720.15625,352.375 L 726.15625,358.40625 L 726.15625,424.625 L 720.15625,412.71875 L 638.84375,352.375 L 575.09375,352.375 z M 442.40625,386.96875 L 475.8125,438.59375 L 464.78125,432.59375 L 420.03125,432.59375 L 442.40625,398 L 442.40625,386.96875 z"
     id="weiss"
     style="fill:#ffffff;fill-opacity:1;fill-rule:nonzero;stroke:none" /><path
     d="M 442.40965,386.96298 L 442.40965,397.99479 L 420.0247,432.58592 L 408.9929,438.59319 L 442.40965,386.96298"
     id="hellgrau"
     style="fill:#acaaaa;fill-opacity:1;fill-rule:evenodd;stroke:none" /><path
     d="M 827.29831,471.91485 C 828.48565,459.60061 829.08509,447.13074 829.08509,434.51678 C 829.08509,220.8734 655.90896,47.698712 442.26556,47.698712 C 228.63515,47.698712 55.447935,220.8734 55.447935,434.51678 C 55.447935,447.13074 56.05917,459.60061 57.234405,471.91485 L 63.90105,477.91059 C 62.282145,463.6655 61.45476,449.19272 61.45476,434.51678 C 61.45476,224.1962 231.94499,53.69445 442.26556,53.69445 C 652.59914,53.69445 823.08935,224.1962 823.08935,434.51678 C 823.08935,449.19272 822.26225,463.6655 820.64264,477.91059 L 827.29831,471.91485"
     id="bogen_kante_innen"
     style="fill:url(#linearGradient3436);fill-opacity:1;fill-rule:nonzero;stroke:none" /><path
     d="M 28.4375,471.90625 L 23,477.90625 L 63.90625,477.90625 L 57.25,471.90625 L 28.4375,471.90625 z M 827.3125,471.90625 L 820.65625,477.90625 L 861.53125,477.90625 L 856.09375,471.90625 L 827.3125,471.90625 z"
     id="bogen_kanten_unten"
     style="fill:#231f20;fill-opacity:1;fill-rule:evenodd;stroke:none" /><path
     d="M 861.54219,477.91059 C 863.0177,463.641 863.76122,449.16967 863.76122,434.51678 C 863.76122,201.72623 675.05758,13.022275 442.26556,13.022275 C 209.48654,13.022275 20.783744,201.72623 20.783744,434.51678 C 20.783744,449.16967 21.527268,463.641 22.990251,477.91059 L 28.433678,471.91485 C 27.342312,459.58908 26.778906,447.11923 26.778906,434.51678 C 26.778906,205.04615 212.79636,19.030262 442.26556,19.030262 C 671.73621,19.030262 857.76549,205.04615 857.76549,434.51678 C 857.76549,447.11923 857.20208,459.58908 856.09833,471.91485 L 861.54219,477.91059"
     id="bogen_kante_aussen"
     style="fill:url(#linearGradient3453);fill-opacity:1;fill-rule:nonzero;stroke:none" /><path
     d="M 442.26556,19.030262 C 212.79636,19.030262 26.778906,205.04615 26.778906,434.51678 C 26.778906,447.11923 27.342312,459.58908 28.433678,471.91485 L 57.234405,471.91485 C 56.05917,459.60061 55.447935,447.13074 55.447935,434.51678 C 55.447935,220.8734 228.63515,47.698712 442.26556,47.698712 C 655.90896,47.698712 829.08509,220.8734 829.08509,434.51678 C 829.08509,447.13074 828.48565,459.60061 827.29831,471.91485 L 856.09833,471.91485 C 857.20208,459.58908 857.76549,447.11923 857.76549,434.51678 C 857.76549,205.04615 671.73621,19.030262 442.26556,19.030262"
     id="bogen_flaeche"
     style="fill:url(#linearGradient3421);fill-opacity:1;fill-rule:nonzero;stroke:none" /><path
     d="M 157.55661,358.39065 L 105.98692,358.39065 L 105.98692,471.91485 L 157.19781,471.91485 L 157.19781,410.07993 L 204.63059,457.5271 L 252.0763,410.07993 L 252.0763,471.91485 L 303.2872,471.91485 L 303.2872,358.39065 L 251.70455,358.39065 L 204.63059,405.46461 L 157.55661,358.39065"
     id="MAN_M"
     style="fill:url(#linearGradient3424);fill-opacity:1;fill-rule:nonzero;stroke:none" /><path
     d="M 475.82642,438.59319 L 408.9929,438.59319 L 442.40965,386.96298 L 475.82642,438.59319 z M 473.62035,358.39065 L 411.18744,358.39065 L 337.31493,471.91485 L 387.6627,471.91485 L 396.97836,457.49108 L 487.82943,457.49108 L 497.14509,471.91485 L 547.5044,471.91485 L 473.62035,358.39065"
     id="MAN_A"
     style="fill:url(#linearGradient3415);fill-opacity:1;fill-rule:evenodd;stroke:none" /><path
     d="M 636.85689,358.39065 L 581.07822,358.39065 L 581.07822,471.91485 L 632.27616,471.91485 L 632.27616,406.19661 L 721.05228,471.91485 L 777.35833,471.91485 L 777.35833,358.39065 L 726.14887,358.39065 L 726.14887,424.63628 L 636.85689,358.39065"
     id="MAN_N"
     style="fill:url(#linearGradient3418);fill-opacity:1;fill-rule:nonzero;stroke:none" /></svg>